<svg width="44" height="40" viewBox="0 0 44 40" fill="none" xmlns="http://www.w3.org/2000/svg">
<path d="M41.984 22.4999H23.4455L35.7917 34.8462C36.2636 35.3181 37.0402 35.3563 37.5253 34.8993C40.5488 32.0508 42.6285 28.2109 43.2387 23.8945C43.3434 23.1554 42.7301 22.4999 41.984 22.4999ZM40.7472 17.4374C40.1035 8.10448 32.6456 0.646582 23.3127 0.00282504C22.6002 -0.0463942 22.0002 0.554394 22.0002 1.26846V18.7499H39.4824C40.1964 18.7499 40.7965 18.1499 40.7472 17.4374ZM18.2501 22.4999V3.96146C18.2501 3.21536 17.5946 2.60207 16.8564 2.70676C7.54609 4.0224 0.429611 12.1561 0.760864 21.9038C1.10149 31.9149 9.72112 40.1244 19.7369 39.9986C23.6744 39.9494 27.3127 38.6806 30.3042 36.5587C30.9214 36.1212 30.962 35.2126 30.4268 34.6774L18.2501 22.4999Z" fill="#FFD600"/>
</svg>
