<svg width="44" height="40" viewBox="0 0 44 40" fill="none" xmlns="http://www.w3.org/2000/svg">
<path d="M41.9839 22.4999H23.4454L35.7917 34.8462C36.2635 35.3181 37.0401 35.3563 37.5253 34.8993C40.5487 32.0508 42.6284 28.2109 43.2386 23.8945C43.3433 23.1554 42.73 22.4999 41.9839 22.4999ZM40.7472 17.4374C40.1034 8.10448 32.6455 0.646582 23.3126 0.00282504C22.6001 -0.0463942 22.0001 0.554394 22.0001 1.26846V18.7499H39.4823C40.1964 18.7499 40.7964 18.1499 40.7472 17.4374ZM18.2501 22.4999V3.96146C18.2501 3.21536 17.5946 2.60207 16.8563 2.70676C7.54603 4.0224 0.42955 12.1561 0.760803 21.9038C1.10143 31.9149 9.72106 40.1244 19.7368 39.9986C23.6743 39.9494 27.3127 38.6806 30.3041 36.5587C30.9213 36.1212 30.9619 35.2126 30.4268 34.6774L18.2501 22.4999Z" fill="white"/>
</svg>
