<svg width="50" height="38" viewBox="0 0 50 38" fill="none" xmlns="http://www.w3.org/2000/svg">
<path d="M48.4375 31.5H6.25V1.8125C6.25 0.949219 5.55078 0.25 4.6875 0.25H1.5625C0.699219 0.25 0 0.949219 0 1.8125V34.625C0 36.3506 1.39941 37.75 3.125 37.75H48.4375C49.3008 37.75 50 37.0508 50 36.1875V33.0625C50 32.1992 49.3008 31.5 48.4375 31.5ZM45.3125 3.375H33.7832C31.6953 3.375 30.6494 5.89941 32.126 7.37598L35.29 10.54L28.125 17.7061L20.96 10.541C19.7393 9.32031 17.7607 9.32031 16.541 10.541L9.83301 17.249C9.22266 17.8594 9.22266 18.8486 9.83301 19.459L12.042 21.668C12.6523 22.2783 13.6416 22.2783 14.252 21.668L18.75 17.1689L25.915 24.334C27.1357 25.5547 29.1143 25.5547 30.334 24.334L39.709 14.959L42.873 18.123C44.3496 19.5996 46.874 18.5537 46.874 16.4658V4.9375C46.875 4.07422 46.1758 3.375 45.3125 3.375Z" fill="white"/>
</svg>
